<?xml version="1.0" encoding="UTF-8" standalone="no"?>
<!-- Generator: Adobe Illustrator 19.0.0, SVG Export Plug-In . SVG Version: 6.00 Build 0)  -->

<svg
   version="1.1"
   id="Layer_1"
   x="0px"
   y="0px"
   viewBox="0 0 22.000001 22.000001"
   xml:space="preserve"
   sodipodi:docname="checked.svg"
   width="22"
   height="22"
   xmlns:inkscape="http://www.inkscape.org/namespaces/inkscape"
   xmlns:sodipodi="http://sodipodi.sourceforge.net/DTD/sodipodi-0.dtd"
   xmlns="http://www.w3.org/2000/svg"
   xmlns:svg="http://www.w3.org/2000/svg"><defs
   id="defs39" /><sodipodi:namedview
   id="namedview37"
   pagecolor="#ffffff"
   bordercolor="#000000"
   borderopacity="0.25"
   inkscape:showpageshadow="2"
   inkscape:pageopacity="0.0"
   inkscape:pagecheckerboard="0"
   inkscape:deskcolor="#d1d1d1"
   showgrid="false" />
<g
   id="g4"
   transform="matrix(0.06991907,0,0,0.06991687,0.0037203,0)"
   inkscape:export-filename="checked.svg"
   inkscape:export-xdpi="96"
   inkscape:export-ydpi="96">
	<path
   style="fill:#01d832"
   d="M 143.031,0 C 64.027,0 0.004,64.04 0.004,143.027 c 0,78.996 64.031,143.027 143.027,143.027 78.987,0 143.018,-64.031 143.018,-143.027 C 286.049,64.049 222.018,0 143.031,0 Z m 0,259.236 c -64.183,0 -116.209,-52.026 -116.209,-116.209 0,-64.183 52.035,-116.209 116.209,-116.209 64.174,0 116.2,52.026 116.2,116.209 0,64.183 -52.025,116.209 -116.2,116.209 z m 56.21,-177.049 c -6.079,-3.629 -13.847,-1.475 -17.342,4.827 l -47.959,86.147 -26.71,-32.512 c -4.836,-5.569 -11.263,-8.456 -17.333,-4.827 -6.079,3.638 -8.591,12.39 -4.657,18.004 l 37.169,45.241 c 2.78,3.611 5.953,5.775 9.27,6.392 l 0.027,0.054 0.34,0.018 c 0.751,0.116 11.979,2.19 16.815,-6.463 l 55.048,-98.876 c 3.493,-6.313 1.411,-14.367 -4.668,-18.005 z"
   id="path2" />
</g>















</svg>
