<?xml version="1.0" encoding="UTF-8" standalone="no"?>
<svg
   width="48.000488"
   height="48.000488"
   viewBox="0 0 48.000488 48.000488"
   fill="none"
   version="1.1"
   id="svg1584"
   sodipodi:docname="Hosting Landing Page.svg"
   xmlns:inkscape="http://www.inkscape.org/namespaces/inkscape"
   xmlns:sodipodi="http://sodipodi.sourceforge.net/DTD/sodipodi-0.dtd"
   xmlns="http://www.w3.org/2000/svg"
   xmlns:svg="http://www.w3.org/2000/svg">
  <sodipodi:namedview
     id="namedview1586"
     pagecolor="#ffffff"
     bordercolor="#000000"
     borderopacity="0.25"
     inkscape:showpageshadow="2"
     inkscape:pageopacity="0.0"
     inkscape:pagecheckerboard="0"
     inkscape:deskcolor="#d1d1d1"
     showgrid="false"
     inkscape:zoom="1.0742678"
     inkscape:cx="651.60662"
     inkscape:cy="477.53457"
     inkscape:window-width="3840"
     inkscape:window-height="2066"
     inkscape:window-x="2869"
     inkscape:window-y="-11"
     inkscape:window-maximized="1"
     inkscape:current-layer="svg1584" />
  <path
     d="m 13.843244,0.41624414 c -2.364,-0.555 -4.8239999,-0.555 -7.1879999,0 -3.096,0.72599996 -5.513,3.14299996 -6.23899996,6.23899996 -0.555,2.364 -0.555,4.8239999 0,7.1879999 0.72599996,3.096 3.14299996,5.514 6.23899996,6.24 2.364,0.554 4.8239999,0.554 7.1879999,0 3.096,-0.726 5.514,-3.144 6.24,-6.24 0.554,-2.364 0.554,-4.8239999 0,-7.1879999 -0.726,-3.096 -3.144,-5.513 -6.24,-6.23899996 z"
     fill="#fca311"
     id="path1443" />
  <path
     d="m 13.843244,0.41624414 c -2.364,-0.555 -4.8239999,-0.555 -7.1879999,0 -3.096,0.72599996 -5.513,3.14299996 -6.23899996,6.23899996 -0.555,2.364 -0.555,4.8239999 0,7.1879999 0.72599996,3.096 3.14299996,5.514 6.23899996,6.24 2.364,0.554 4.8239999,0.554 7.1879999,0 3.096,-0.726 5.514,-3.144 6.24,-6.24 0.554,-2.364 0.554,-4.8239999 0,-7.1879999 -0.726,-3.096 -3.144,-5.513 -6.24,-6.23899996 z"
     fill="url(#paint4_linear_0_1)"
     id="path1445"
     style="fill:url(#paint4_linear_0_1)" />
  <path
     d="m 13.843244,27.917244 c -2.364,-0.554 -4.8239999,-0.554 -7.1879999,0 -3.096,0.726 -5.513,3.144 -6.23899996,6.24 -0.555,2.364 -0.555,4.824 0,7.188 0.72599996,3.096 3.14299996,5.513 6.23899996,6.239 2.364,0.555 4.8239999,0.555 7.1879999,0 3.096,-0.726 5.514,-3.143 6.24,-6.239 0.554,-2.364 0.554,-4.824 0,-7.188 -0.726,-3.096 -3.144,-5.514 -6.24,-6.24 z"
     fill="#fca311"
     id="path1447" />
  <path
     d="m 13.843244,27.917244 c -2.364,-0.554 -4.8239999,-0.554 -7.1879999,0 -3.096,0.726 -5.513,3.144 -6.23899996,6.24 -0.555,2.364 -0.555,4.824 0,7.188 0.72599996,3.096 3.14299996,5.513 6.23899996,6.239 2.364,0.555 4.8239999,0.555 7.1879999,0 3.096,-0.726 5.514,-3.143 6.24,-6.239 0.554,-2.364 0.554,-4.824 0,-7.188 -0.726,-3.096 -3.144,-5.514 -6.24,-6.24 z"
     fill="url(#paint5_linear_0_1)"
     id="path1449"
     style="fill:url(#paint5_linear_0_1)" />
  <path
     d="m 41.345244,0.41624414 c -2.364,-0.555 -4.824,-0.555 -7.188,0 -3.096,0.72599996 -5.514,3.14299996 -6.24,6.23899996 -0.554,2.364 -0.554,4.8239999 0,7.1879999 0.726,3.096 3.144,5.514 6.24,6.24 2.364,0.554 4.824,0.554 7.188,0 3.096,-0.726 5.513,-3.144 6.239,-6.24 0.555,-2.364 0.555,-4.8239999 0,-7.1879999 -0.726,-3.096 -3.143,-5.513 -6.239,-6.23899996 z"
     fill="#fca311"
     id="path1451" />
  <path
     d="m 41.345244,0.41624414 c -2.364,-0.555 -4.824,-0.555 -7.188,0 -3.096,0.72599996 -5.514,3.14299996 -6.24,6.23899996 -0.554,2.364 -0.554,4.8239999 0,7.1879999 0.726,3.096 3.144,5.514 6.24,6.24 2.364,0.554 4.824,0.554 7.188,0 3.096,-0.726 5.513,-3.144 6.239,-6.24 0.555,-2.364 0.555,-4.8239999 0,-7.1879999 -0.726,-3.096 -3.143,-5.513 -6.239,-6.23899996 z"
     fill="url(#paint6_linear_0_1)"
     id="path1453"
     style="fill:url(#paint6_linear_0_1)" />
  <path
     d="m 41.345244,27.917244 c -2.364,-0.554 -4.824,-0.554 -7.188,0 -3.096,0.726 -5.514,3.144 -6.24,6.24 -0.554,2.364 -0.554,4.824 0,7.188 0.726,3.096 3.144,5.513 6.24,6.239 2.364,0.555 4.824,0.555 7.188,0 3.096,-0.726 5.513,-3.143 6.239,-6.239 0.555,-2.364 0.555,-4.824 0,-7.188 -0.726,-3.096 -3.143,-5.514 -6.239,-6.24 z"
     fill="#fca311"
     id="path1455" />
  <path
     d="m 41.345244,27.917244 c -2.364,-0.554 -4.824,-0.554 -7.188,0 -3.096,0.726 -5.514,3.144 -6.24,6.24 -0.554,2.364 -0.554,4.824 0,7.188 0.726,3.096 3.144,5.513 6.24,6.239 2.364,0.555 4.824,0.555 7.188,0 3.096,-0.726 5.513,-3.143 6.239,-6.239 0.555,-2.364 0.555,-4.824 0,-7.188 -0.726,-3.096 -3.143,-5.514 -6.239,-6.24 z"
     fill="url(#paint7_linear_0_1)"
     id="path1457"
     style="fill:url(#paint7_linear_0_1)" />
  <defs
     id="defs1582">
    <linearGradient
       id="paint4_linear_0_1"
       x1="639"
       y1="866.77802"
       x2="668.245"
       y2="924.31097"
       gradientUnits="userSpaceOnUse"
       gradientTransform="translate(-638.99976,-866.99976)">
      <stop
         stop-color="#09C6F9"
         id="stop1519" />
      <stop
         offset="1"
         stop-color="#045DE9"
         id="stop1521" />
    </linearGradient>
    <linearGradient
       id="paint5_linear_0_1"
       x1="639"
       y1="866.77802"
       x2="668.245"
       y2="924.31097"
       gradientUnits="userSpaceOnUse"
       gradientTransform="translate(-638.99976,-866.99976)">
      <stop
         stop-color="#09C6F9"
         id="stop1524" />
      <stop
         offset="1"
         stop-color="#045DE9"
         id="stop1526" />
    </linearGradient>
    <linearGradient
       id="paint6_linear_0_1"
       x1="639"
       y1="866.77802"
       x2="668.245"
       y2="924.31097"
       gradientUnits="userSpaceOnUse"
       gradientTransform="translate(-638.99976,-866.99976)">
      <stop
         stop-color="#09C6F9"
         id="stop1529" />
      <stop
         offset="1"
         stop-color="#045DE9"
         id="stop1531" />
    </linearGradient>
    <linearGradient
       id="paint7_linear_0_1"
       x1="639"
       y1="866.77802"
       x2="668.245"
       y2="924.31097"
       gradientUnits="userSpaceOnUse"
       gradientTransform="translate(-638.99976,-866.99976)">
      <stop
         stop-color="#09C6F9"
         id="stop1534" />
      <stop
         offset="1"
         stop-color="#045DE9"
         id="stop1536" />
    </linearGradient>
  </defs>
</svg>
