<?xml version="1.0" encoding="UTF-8" standalone="no"?>
<svg
   width="152"
   height="32"
   viewBox="0 0 152 32"
   fill="none"
   version="1.1"
   id="svg1584"
   xmlns="http://www.w3.org/2000/svg"
   xmlns:svg="http://www.w3.org/2000/svg">
  <circle
     cx="96"
     cy="16"
     r="16"
     fill="#fca311"
     id="circle1475" />
  <circle
     cx="96"
     cy="16"
     r="16"
     fill="url(#paint12_linear_0_1)"
     id="circle1477"
     style="fill:url(#paint12_linear_0_1)" />
  <path
     d="M 91.193,20 V 17.012 L 88.373,11.6 h 1.74 l 1.86,3.876 1.848,-3.876 h 1.716 l -2.808,5.412 V 20 Z m 7.284,0 V 12.836 H 96.029 V 11.6 h 6.444 v 1.236 h -2.46 V 20 Z"
     fill="#ffffff"
     id="path1479" />
  <circle
     cx="136"
     cy="16"
     r="16"
     fill="#fca311"
     id="circle1481" />
  <circle
     cx="136"
     cy="16"
     r="16"
     fill="url(#paint13_linear_0_1)"
     id="circle1483"
     style="fill:url(#paint13_linear_0_1)" />
  <path
     d="m 131.929,20 v -8.4 h 1.536 v 7.2 h 3.72 V 20 Z m 6.61,0 v -8.4 h 1.536 V 20 Z"
     fill="#ffffff"
     id="path1485" />
  <circle
     cx="56"
     cy="16"
     r="16"
     fill="#fca311"
     id="circle1487" />
  <circle
     cx="56"
     cy="16"
     r="16"
     fill="url(#paint14_linear_0_1)"
     id="circle1489"
     style="fill:url(#paint14_linear_0_1)" />
  <path
     d="m 49.816,20 v -8.4 h 1.536 V 20 Z m 6.836,0.144 c -0.792,0 -1.484,-0.18 -2.076,-0.54 -0.592,-0.36 -1.052,-0.86 -1.38,-1.5 -0.328,-0.648 -0.492,-1.4 -0.492,-2.256 0,-0.864 0.168,-1.624 0.504,-2.28 0.344,-0.664 0.828,-1.18 1.452,-1.548 0.632,-0.376 1.38,-0.564 2.244,-0.564 0.984,0 1.8,0.236 2.448,0.708 0.648,0.472 1.068,1.124 1.26,1.956 h -1.716 c -0.128,-0.392 -0.36,-0.696 -0.696,-0.912 -0.336,-0.224 -0.768,-0.336 -1.296,-0.336 -0.84,0 -1.488,0.268 -1.944,0.804 -0.456,0.528 -0.684,1.256 -0.684,2.184 0,0.928 0.224,1.648 0.672,2.16 0.456,0.504 1.072,0.756 1.848,0.756 0.76,0 1.332,-0.204 1.716,-0.612 0.392,-0.416 0.628,-0.96 0.708,-1.632 H 57.096 V 15.38 h 3.672 V 20 h -1.416 l -0.12,-1.104 c -0.272,0.4 -0.612,0.708 -1.02,0.924 -0.408,0.216 -0.928,0.324 -1.56,0.324 z"
     fill="#ffffff"
     id="path1491" />
  <circle
     cx="16"
     cy="16"
     r="16"
     fill="#fca311"
     id="circle1493" />
  <circle
     cx="16"
     cy="16"
     r="16"
     fill="url(#paint15_linear_0_1)"
     id="circle1495"
     style="fill:url(#paint15_linear_0_1)" />
  <path
     d="m 8.816,20 v -8.4 h 5.424 v 1.236 h -3.888 v 2.352 h 3.144 V 16.4 H 10.352 V 20 Z m 6.609,0 v -8.4 h 3.372 c 0.872,0 1.536,0.204 1.992,0.612 0.464,0.4 0.696,0.916 0.696,1.548 0,0.528 -0.144,0.952 -0.432,1.272 -0.28,0.312 -0.624,0.524 -1.032,0.636 0.48,0.096 0.876,0.336 1.188,0.72 0.312,0.376 0.468,0.816 0.468,1.32 0,0.664 -0.24,1.212 -0.72,1.644 -0.48,0.432 -1.16,0.648 -2.04,0.648 z m 1.536,-4.872 h 1.608 c 0.432,0 0.764,-0.1 0.996,-0.3 0.232,-0.2 0.348,-0.484 0.348,-0.852 0,-0.352 -0.116,-0.628 -0.348,-0.828 -0.224,-0.208 -0.564,-0.312 -1.02,-0.312 h -1.584 z m 0,3.624 h 1.716 c 0.456,0 0.808,-0.104 1.056,-0.312 0.256,-0.216 0.384,-0.516 0.384,-0.9 0,-0.392 -0.132,-0.7 -0.396,-0.924 -0.264,-0.224 -0.62,-0.336 -1.068,-0.336 h -1.692 z"
     fill="#ffffff"
     id="path1497" />
  <defs
     id="defs1582">
    <linearGradient
       id="paint12_linear_0_1"
       x1="351"
       y1="842.85199"
       x2="370.49701"
       y2="881.20697"
       gradientUnits="userSpaceOnUse"
       gradientTransform="translate(-271,-843)">
      <stop
         stop-color="#09C6F9"
         id="stop1559" />
      <stop
         offset="1"
         stop-color="#045DE9"
         id="stop1561" />
    </linearGradient>
    <linearGradient
       id="paint13_linear_0_1"
       x1="391"
       y1="842.85199"
       x2="410.49701"
       y2="881.20697"
       gradientUnits="userSpaceOnUse"
       gradientTransform="translate(-271,-843)">
      <stop
         stop-color="#09C6F9"
         id="stop1564" />
      <stop
         offset="1"
         stop-color="#045DE9"
         id="stop1566" />
    </linearGradient>
    <linearGradient
       id="paint14_linear_0_1"
       x1="311"
       y1="842.85199"
       x2="330.49701"
       y2="881.20697"
       gradientUnits="userSpaceOnUse"
       gradientTransform="translate(-271,-843)">
      <stop
         stop-color="#09C6F9"
         id="stop1569" />
      <stop
         offset="1"
         stop-color="#045DE9"
         id="stop1571" />
    </linearGradient>
    <linearGradient
       id="paint15_linear_0_1"
       x1="271"
       y1="842.85199"
       x2="290.49701"
       y2="881.20697"
       gradientUnits="userSpaceOnUse"
       gradientTransform="translate(-271,-843)">
      <stop
         stop-color="#09C6F9"
         id="stop1574" />
      <stop
         offset="1"
         stop-color="#045DE9"
         id="stop1576" />
    </linearGradient>
  </defs>
</svg>
