<?xml version="1.0" encoding="UTF-8" standalone="no"?>
<svg
   width="47.999756"
   height="48"
   viewBox="0 0 47.999756 48"
   fill="none"
   version="1.1"
   id="svg1584"
   sodipodi:docname="Hosting Landing Page.svg"
   xmlns:inkscape="http://www.inkscape.org/namespaces/inkscape"
   xmlns:sodipodi="http://sodipodi.sourceforge.net/DTD/sodipodi-0.dtd"
   xmlns="http://www.w3.org/2000/svg"
   xmlns:svg="http://www.w3.org/2000/svg">
  <sodipodi:namedview
     id="namedview1586"
     pagecolor="#ffffff"
     bordercolor="#000000"
     borderopacity="0.25"
     inkscape:showpageshadow="2"
     inkscape:pageopacity="0.0"
     inkscape:pagecheckerboard="0"
     inkscape:deskcolor="#d1d1d1"
     showgrid="false"
     inkscape:zoom="1.0742678"
     inkscape:cx="651.60662"
     inkscape:cy="477.53457"
     inkscape:window-width="3840"
     inkscape:window-height="2066"
     inkscape:window-x="2869"
     inkscape:window-y="-11"
     inkscape:window-maximized="1"
     inkscape:current-layer="svg1584" />
  <path
     d="M 22.084878,0 V 14.406 H 1.3778779 c 2.187,-6.738 7.738,-11.903 14.7010001,-13.54 1.98,-0.466 3.989,-0.754 6.006,-0.866 z"
     fill="#fca311"
     id="path1427" />
  <path
     d="M 22.084878,0 V 14.406 H 1.3778779 c 2.187,-6.738 7.738,-11.903 14.7010001,-13.54 1.98,-0.466 3.989,-0.754 6.006,-0.866 z"
     fill="url(#paint0_linear_0_1)"
     id="path1429"
     style="fill:url(#paint0_linear_0_1)" />
  <path
     d="m 25.914878,0 v 29.756 h 21.606 c 0.761,-4.541 0.615,-9.196 -0.438,-13.694 -1.764,-7.54 -7.639,-13.428 -15.162,-15.196 -1.979,-0.466 -3.989,-0.754 -6.006,-0.866 z"
     fill="#fca311"
     id="path1431" />
  <path
     d="m 25.914878,0 v 29.756 h 21.606 c 0.761,-4.541 0.615,-9.196 -0.438,-13.694 -1.764,-7.54 -7.639,-13.428 -15.162,-15.196 -1.979,-0.466 -3.989,-0.754 -6.006,-0.866 z"
     fill="url(#paint1_linear_0_1)"
     id="path1433"
     style="fill:url(#paint1_linear_0_1)" />
  <path
     d="m 46.621878,33.594 h -20.707 V 48 c 2.017,-0.112 4.027,-0.4 6.006,-0.866 6.963,-1.637 12.514,-6.802 14.701,-13.54 z"
     fill="#fca311"
     id="path1435" />
  <path
     d="m 46.621878,33.594 h -20.707 V 48 c 2.017,-0.112 4.027,-0.4 6.006,-0.866 6.963,-1.637 12.514,-6.802 14.701,-13.54 z"
     fill="url(#paint2_linear_0_1)"
     id="path1437"
     style="fill:url(#paint2_linear_0_1)" />
  <path
     d="M 22.084878,48 V 18.244 H 0.47887793 c -0.761,4.541 -0.615,9.196 0.438,13.694 1.76399997,7.54 7.63899997,13.428 15.16200007,15.196 1.98,0.466 3.989,0.754 6.006,0.866 z"
     fill="#fca311"
     id="path1439" />
  <path
     d="M 22.084878,48 V 18.244 H 0.47887793 c -0.761,4.541 -0.615,9.196 0.438,13.694 1.76399997,7.54 7.63899997,13.428 15.16200007,15.196 1.98,0.466 3.989,0.754 6.006,0.866 z"
     fill="url(#paint3_linear_0_1)"
     id="path1441"
     style="fill:url(#paint3_linear_0_1)" />
  <defs
     id="defs1582">
    <linearGradient
       id="paint0_linear_0_1"
       x1="760"
       y1="866.77802"
       x2="789.245"
       y2="924.31097"
       gradientUnits="userSpaceOnUse"
       gradientTransform="translate(-760.00012,-867)">
      <stop
         stop-color="#09C6F9"
         id="stop1499" />
      <stop
         offset="1"
         stop-color="#045DE9"
         id="stop1501" />
    </linearGradient>
    <linearGradient
       id="paint1_linear_0_1"
       x1="760"
       y1="866.77802"
       x2="789.245"
       y2="924.31097"
       gradientUnits="userSpaceOnUse"
       gradientTransform="translate(-760.00012,-867)">
      <stop
         stop-color="#09C6F9"
         id="stop1504" />
      <stop
         offset="1"
         stop-color="#045DE9"
         id="stop1506" />
    </linearGradient>
    <linearGradient
       id="paint2_linear_0_1"
       x1="760"
       y1="866.77802"
       x2="789.245"
       y2="924.31097"
       gradientUnits="userSpaceOnUse"
       gradientTransform="translate(-760.00012,-867)">
      <stop
         stop-color="#09C6F9"
         id="stop1509" />
      <stop
         offset="1"
         stop-color="#045DE9"
         id="stop1511" />
    </linearGradient>
    <linearGradient
       id="paint3_linear_0_1"
       x1="760"
       y1="866.77802"
       x2="789.245"
       y2="924.31097"
       gradientUnits="userSpaceOnUse"
       gradientTransform="translate(-760.00012,-867)">
      <stop
         stop-color="#09C6F9"
         id="stop1514" />
      <stop
         offset="1"
         stop-color="#045DE9"
         id="stop1516" />
    </linearGradient>
  </defs>
</svg>
